<svg xmlns="http://www.w3.org/2000/svg" fill="white" xml:space="preserve" id="id-473__Layer_1" x="0" y="0" version="1.1" viewBox="0 0 140 15.08"><g><path d="m20.97 3.72-2.27 7.97h-.11l-2.28-7.97H13.1l3.83 11.14h3.43l3.83-11.14zM32.58 4.46c-.45-.31-.96-.54-1.49-.67-.57-.15-1.16-.22-1.75-.22-.88 0-1.64.13-2.31.4-.66.27-1.2.65-1.62 1.15-.42.51-.71 1.11-.84 1.76l2.81.23c.1-.37.32-.67.64-.92s.76-.37 1.31-.37c.52 0 .92.13 1.2.38s.42.61.42 1.07v.04c0 .24-.09.42-.26.54-.18.12-.46.21-.85.27s-.9.12-1.54.19c-.52.05-1.04.14-1.55.28-.47.12-.91.32-1.32.58-.39.26-.69.6-.91 1.02s-.34.94-.34 1.56c0 .74.16 1.35.47 1.84q.48.735 1.29 1.11c.55.25 1.17.37 1.87.37.54 0 1.02-.07 1.43-.22.39-.13.75-.34 1.06-.62.29-.26.53-.57.71-.92h.09c0 .85.68 1.54 1.52 1.54h1.36V7.34c0-.66-.13-1.23-.38-1.71-.23-.46-.58-.87-1.02-1.17m-1.61 6.42c0 .39-.1.74-.29 1.05-.2.31-.48.57-.81.74-.37.19-.77.28-1.18.27-.47 0-.85-.11-1.15-.33q-.45-.33-.45-.96c0-.29.07-.53.22-.73s.35-.35.62-.47.58-.2.93-.25l.56-.08c.2-.03.41-.07.61-.11s.39-.09.55-.14.29-.11.39-.17zM107.05 4.46c-.45-.31-.96-.54-1.49-.67-.57-.15-1.16-.22-1.75-.22-.88 0-1.64.13-2.31.4-.66.27-1.21.65-1.62 1.15-.42.51-.71 1.11-.84 1.76l2.81.23c.11-.37.32-.67.64-.92s.76-.37 1.31-.37c.52 0 .92.13 1.2.38s.43.61.43 1.07v.04c0 .24-.09.42-.26.54-.18.12-.46.21-.85.27s-.9.12-1.54.19c-.52.05-1.04.14-1.55.28-.49.13-.93.32-1.32.58-.38.26-.69.6-.91 1.02s-.34.94-.34 1.56c0 .74.16 1.35.48 1.84q.48.735 1.29 1.11c.55.25 1.17.37 1.87.37.54 0 1.02-.07 1.43-.22.39-.13.75-.34 1.06-.62.29-.26.53-.57.71-.92h.09c0 .85.68 1.54 1.52 1.54h1.36V7.34c0-.66-.13-1.23-.38-1.71-.26-.46-.61-.87-1.04-1.17m-1.9 7.47c-.2.31-.48.57-.81.74-.37.19-.77.28-1.18.27-.47 0-.85-.11-1.15-.33q-.45-.33-.45-.96c0-.29.07-.53.22-.73s.35-.35.62-.47.58-.2.93-.25l.56-.08c.2-.03.41-.07.61-.11.19-.04.37-.08.55-.14.14-.04.27-.1.39-.17v1.18c0 .39-.1.74-.29 1.05M134.98 12.87h.73v1.99h.54v-1.99h.74v-.46h-2.01zM139.85 12.41h-.5l-.65 1.68-.64-1.68h-.65v2.45h.54v-1.48l.6 1.48h.3l.61-1.49v1.49h.54v-2.45zM49.35 4.98c-.46-.47-1.02-.83-1.64-1.06-.65-.24-1.33-.36-2.02-.35-1.07 0-2.01.24-2.81.73-.8.48-1.44 1.19-1.85 2.02-.44.86-.66 1.87-.66 3.02 0 1.17.22 2.19.66 3.05.41.83 1.07 1.53 1.87 1.99.81.47 1.78.7 2.91.7.9 0 1.7-.14 2.39-.42s1.26-.68 1.7-1.19.73-1.11.87-1.8l-2.81-.19c-.1.28-.26.52-.46.71s-.44.34-.72.44q-.42.15-.93.15-.765 0-1.32-.33c-.37-.22-.67-.54-.86-.93-.2-.4-.3-.88-.3-1.43v-.01h7.46v-.85c0-.95-.13-1.78-.39-2.48-.26-.71-.63-1.3-1.09-1.77m-5.97 3.18c.02-.4.11-.77.3-1.1a2.275 2.275 0 0 1 2.05-1.18c.44 0 .83.1 1.17.29.34.2.6.47.79.81s.28.74.28 1.18zM5.59 0 3.03 7.54c-.84-.07-1.68-.11-2.52-.11L0 8.94c.87.04 1.69.12 2.47.25L.55 14.86h3.31l1.58-4.93c2.83 1.01 4.76 2.73 5.52 4.93h3.65L9.57 0zm5.91 10.47c-1.26-1-3.01-1.91-5.46-2.47l1.48-4.6h.11l1.54 4.81c.92.6 1.76 1.29 2.47 2.08zM35.95 0h3.04v14.86h-3.04zM96.09 4.98c-.46-.47-1.02-.83-1.64-1.06-.65-.24-1.33-.36-2.02-.35-1.07 0-2.01.24-2.81.73-.8.48-1.44 1.19-1.85 2.02-.44.86-.66 1.87-.66 3.02 0 1.17.22 2.19.66 3.05.41.83 1.06 1.53 1.87 1.99.81.47 1.78.7 2.91.7.9 0 1.7-.14 2.39-.42s1.26-.68 1.7-1.19.73-1.11.87-1.8l-2.81-.19c-.1.28-.26.52-.46.71s-.44.34-.72.44q-.42.15-.93.15-.765 0-1.32-.33c-.37-.22-.67-.54-.86-.93-.2-.4-.3-.88-.3-1.43v-.01h7.46v-.85c0-.95-.13-1.78-.39-2.48-.25-.71-.62-1.3-1.09-1.77m-5.96 3.18c.02-.4.12-.77.3-1.1a2.275 2.275 0 0 1 2.05-1.18c.44 0 .83.1 1.17.29.34.2.6.47.79.81s.29.74.29 1.18zM58.1 3.56c-.61 0-1.15.18-1.63.53-.47.35-.81.88-1.01 1.57h-.11c0-1.07-.86-1.94-1.91-1.94h-1.03v11.14h3.04v-6.3c0-.45.1-.86.3-1.2.2-.35.48-.62.83-.82s.75-.29 1.19-.29c.21 0 .44.02.69.05s.45.07.59.12V3.66c-.15-.04-.31-.06-.46-.08-.16-.01-.32-.02-.49-.02M110.21 0h3.04v14.86h-3.04zM120.7 12.48c-.14.03-.28.04-.43.04q-.315 0-.54-.09a.68.68 0 0 1-.36-.33c-.09-.16-.13-.38-.13-.66v-5.4h2.06V3.72h-2.06V1.05h-3.04v2.67h-1.5v2.32h1.5v5.8c-.01.73.15 1.34.45 1.81.3.48.73.83 1.28 1.06q.825.345 1.92.3c.34-.01.67-.05 1-.12.28-.07.49-.12.64-.17l-.48-2.3zM131.43 4.07c-.57-.34-1.23-.5-1.99-.5-.83 0-1.52.19-2.07.56-.55.38-.95.89-1.2 1.55h-.13V0h-2.95v14.86h3.04V8.42q.015-.72.27-1.23c.18-.34.43-.6.74-.78.34-.18.71-.28 1.1-.27q.93 0 1.44.57c.35.38.52.92.51 1.6v6.54h3.04v-7.1c0-.87-.15-1.62-.47-2.24-.3-.59-.76-1.09-1.33-1.44M68.05 4.98c-.46-.47-1.02-.83-1.64-1.06-.65-.24-1.33-.36-2.02-.35-1.07 0-2.01.24-2.81.73-.8.48-1.44 1.19-1.85 2.02-.44.86-.66 1.87-.66 3.02 0 1.17.22 2.19.66 3.05.41.83 1.06 1.53 1.87 1.99.81.47 1.78.7 2.91.7.9 0 1.7-.14 2.39-.42s1.26-.68 1.7-1.19.73-1.11.87-1.8l-2.81-.19c-.1.28-.26.52-.46.71s-.44.34-.72.44q-.42.15-.93.15-.765 0-1.32-.33c-.37-.22-.67-.54-.86-.93-.2-.4-.3-.88-.3-1.43v-.01h7.46v-.85c0-.95-.13-1.78-.39-2.48-.25-.71-.62-1.3-1.09-1.77m-5.96 3.18c.02-.4.12-.77.3-1.1a2.275 2.275 0 0 1 2.05-1.18c.44 0 .83.1 1.17.29.34.2.6.47.79.81s.29.74.29 1.18zM82.59 6.13H76.9V0h-3.09v14.86h3.09V8.72h5.69v6.14h3.08V0h-3.08z"></path></g></svg>